<?xml version="1.0" encoding="iso-8859-1"?>
<!-- Generator: Adobe Illustrator 19.0.0, SVG Export Plug-In . SVG Version: 6.00 Build 0)  -->
<svg version="1.1" id="Capa_1" xmlns="http://www.w3.org/2000/svg" xmlns:xlink="http://www.w3.org/1999/xlink" x="0px" y="0px"
	 viewBox="0 0 512 512" style="enable-background:new 0 0 512 512;" xml:space="preserve">
<path style="fill:#F3F5E6;" d="M379.3,40.03c-12.971-13.269-30.095-21.695-48.522-23.874l-24.533-2.902
	c-8.017-0.948-15.848-3.087-23.235-6.346c-22.997-10.145-49.396-9.068-71.489,2.919l-21.374,11.597
	c-6.24,3.385-12.898,5.938-19.802,7.592l-27.479,6.584c-18.918,4.533-35.579,15.706-46.953,31.489L66.92,107.322L256,169.977
	l189.079-62.655L379.3,40.03z"/>
<path style="fill:#D7D9CC;" d="M128.731,107.322l28.993-40.235c11.373-15.782,28.034-26.957,46.953-31.489l27.479-6.584
	c6.904-1.654,13.561-4.206,19.802-7.592l21.374-11.597c2.551-1.385,5.162-2.617,7.816-3.709
	c-22.552-9.286-48.127-7.956-69.627,3.709l-21.374,11.597c-6.24,3.386-12.898,5.938-19.802,7.592l-27.479,6.584
	c-18.918,4.532-35.579,15.706-46.953,31.489L66.92,107.322L256,169.977l30.905-10.241L128.731,107.322z"/>
<path style="fill:#FDCA74;" d="M45.643,225.821c0,0-26.956,67.767-12.255,216.876c0,0-31.502,27.302-22.051,50.403
	c9.451,23.101,45.153,3.15,45.153,3.15S104.792,512,256,512s199.511-15.75,199.511-15.75s35.702,19.952,45.153-3.15
	c9.451-23.101-22.051-50.403-22.051-50.403c14.701-149.108-12.255-216.876-12.255-216.876L256,169.977L45.643,225.821z"/>
<path style="fill:#E6B25B;" d="M112.606,225.775l176.788-46.932L256,169.977L45.643,225.821c0,0-26.956,67.767-12.255,216.875
	c0,0-31.502,27.302-22.051,50.403c9.451,23.101,45.153,3.15,45.153,3.15s10.84,3.531,38.291,7.249
	C78.047,312.7,112.606,225.775,112.606,225.775z"/>
<path style="fill:#FB8D4B;" d="M445.079,107.322H66.92c-20.259,0-36.683,16.423-36.683,36.683v51.945
	c0,20.259,16.423,36.683,36.683,36.683h378.159c20.259,0,36.683-16.423,36.683-36.683v-51.945
	C481.762,123.746,465.339,107.322,445.079,107.322z"/>
<path style="fill:#E86D24;" d="M92.048,195.95v-51.945c0-20.26,16.423-36.682,36.683-36.682H66.92
	c-20.259,0-36.683,16.423-36.683,36.682v51.945c0,20.26,16.423,36.682,36.683,36.682h61.811
	C108.471,232.632,92.048,216.208,92.048,195.95z"/>
<g>
	<path style="fill:#3B484A;" d="M145.371,367.936c-4.267,0-7.726-3.459-7.726-7.726v-20.022c0-4.267,3.459-7.726,7.726-7.726
		c4.267,0,7.726,3.459,7.726,7.726v20.022C153.097,364.476,149.638,367.936,145.371,367.936z"/>
	<path style="fill:#3B484A;" d="M366.629,367.936c-4.267,0-7.726-3.459-7.726-7.726v-20.022c0-4.267,3.459-7.726,7.726-7.726
		c4.267,0,7.726,3.459,7.726,7.726v20.022C374.355,364.476,370.896,367.936,366.629,367.936z"/>
	<path style="fill:#3B484A;" d="M256,378.623c-12.871,0-24.943-5.366-33.121-14.722c-2.809-3.213-2.481-8.094,0.731-10.902
		c3.213-2.808,8.094-2.481,10.902,0.732c5.244,5.999,13.076,9.44,21.488,9.44c8.412,0,16.244-3.441,21.488-9.439
		c2.808-3.213,7.689-3.541,10.902-0.732c3.213,2.808,3.541,7.689,0.732,10.902C280.943,373.257,268.871,378.623,256,378.623z"/>
</g>
<g>
</g>
<g>
</g>
<g>
</g>
<g>
</g>
<g>
</g>
<g>
</g>
<g>
</g>
<g>
</g>
<g>
</g>
<g>
</g>
<g>
</g>
<g>
</g>
<g>
</g>
<g>
</g>
<g>
</g>
</svg>
