<?xml version="1.0" encoding="iso-8859-1"?>
<!-- Generator: Adobe Illustrator 19.0.0, SVG Export Plug-In . SVG Version: 6.00 Build 0)  -->
<svg version="1.1" id="Capa_1" xmlns="http://www.w3.org/2000/svg" xmlns:xlink="http://www.w3.org/1999/xlink" x="0px" y="0px"
	 viewBox="0 0 511.999 511.999" style="enable-background:new 0 0 511.999 511.999;" xml:space="preserve">
<path style="fill:#80E2FF;" d="M457.871,123.286H35.098c-17.379,0-27.323,9.409-33.004,19.738
	c-6.113,11.115,1.882,24.69,14.567,24.624c16.165-0.084,36.192,2.937,41.656,17.492l1.936,5.157l0,0l10.244,7.726l-4.444,7.726
	l4.444,11.84l10.244,7.726l-4.444,7.726l0,0l4.444,11.839l0,0l10.244,8.718l-4.444,6.734l4.443,11.839l0,0l10.244,5.808
	l-4.444,9.645l4.444,11.839l13.994,7.726l-8.194,7.726l4.444,11.839l12.78,7.726l-6.979,7.726l0,0l4.534,12.077l17.149,7.488
	l-8.319,7.726c9.899,11.94,24.765,19.212,40.864,19.212h149.964c22.12,0,41.921-13.718,49.694-34.427l63.683-169.653
	c1.825-4.865,6.763-7.841,11.917-7.178c24.792,3.183,30.185,23.254,14.866,107.534c-1.274,7.009,3.435,13.814,10.511,14.636
	c5.703,0.662,11.013-2.7,12.909-7.986C522.881,186.229,526.868,123.286,457.871,123.286z"/>
<g>
	<path style="fill:#45B6D9;" d="M107.498,190.298H60.252l5.8,15.453h41.445c4.267,0,7.726-3.459,7.726-7.726
		C115.224,193.757,111.765,190.298,107.498,190.298z"/>
	<path style="fill:#45B6D9;" d="M117.74,217.59H70.497l5.8,15.453h41.443c4.267,0,7.726-3.459,7.726-7.726
		C125.466,221.049,122.007,217.59,117.74,217.59z"/>
	<path style="fill:#45B6D9;" d="M127.952,244.882H80.741l5.8,15.453h41.411c4.267,0,7.726-3.459,7.726-7.726
		S132.219,244.882,127.952,244.882z"/>
	<path style="fill:#45B6D9;" d="M138.227,272.174H90.986l5.8,15.453h41.441c4.267,0,7.726-3.459,7.726-7.726
		C145.953,275.633,142.494,272.174,138.227,272.174z"/>
	<path style="fill:#45B6D9;" d="M148.454,299.465H101.23l5.801,15.453h41.425c4.267,0,7.726-3.459,7.726-7.726
		C156.182,302.925,152.721,299.465,148.454,299.465z"/>
	<path style="fill:#45B6D9;" d="M158.714,326.757h-47.239l5.8,15.453h41.439c4.267,0,7.726-3.459,7.726-7.726
		C166.44,330.216,162.981,326.757,158.714,326.757z"/>
	<path style="fill:#45B6D9;" d="M169.673,354.049h-47.955l0.09,0.238c2.116,5.636,5.128,10.75,8.831,15.215h39.035
		c4.267,0,7.726-3.459,7.726-7.726S173.94,354.049,169.673,354.049z"/>
</g>
<g>
	<path style="fill:#3B484A;" d="M170.1,263.037c-4.267,0-7.726-3.459-7.726-7.726v-14.696c0-4.267,3.459-7.726,7.726-7.726
		s7.726,3.459,7.726,7.726v14.696C177.826,259.578,174.367,263.037,170.1,263.037z"/>
	<path style="fill:#3B484A;" d="M332.5,263.037c-4.267,0-7.726-3.459-7.726-7.726v-14.696c0-4.267,3.459-7.726,7.726-7.726
		s7.726,3.459,7.726,7.726v14.696C340.227,259.578,336.767,263.037,332.5,263.037z"/>
	<path style="fill:#3B484A;" d="M251.301,270.881c-10.041,0-19.466-4.195-25.86-11.508c-2.808-3.213-2.481-8.094,0.732-10.902
		c3.213-2.808,8.094-2.481,10.902,0.732c3.458,3.957,8.643,6.225,14.225,6.225c5.582,0,10.766-2.27,14.224-6.225
		c2.808-3.213,7.689-3.541,10.902-0.732s3.541,7.689,0.732,10.902C270.767,266.687,261.342,270.881,251.301,270.881z"/>
</g>
<g>
</g>
<g>
</g>
<g>
</g>
<g>
</g>
<g>
</g>
<g>
</g>
<g>
</g>
<g>
</g>
<g>
</g>
<g>
</g>
<g>
</g>
<g>
</g>
<g>
</g>
<g>
</g>
<g>
</g>
</svg>
