<svg height="511pt" viewBox="-42 1 511 511.999" width="511pt" xmlns="http://www.w3.org/2000/svg"><path d="m355.132812 431.226562c-25.628906 15.421876-44.691406 36.0625-54.832031 56.878907 23.140625.792969 50.308594-6.382813 75.9375-21.800781 23.070313-13.882813 40.820313-31.996094 51.53125-50.65625 1.589844-2.769532-.550781-6.328126-3.742187-6.222657-21.507813.722657-45.824219 7.921875-68.894532 21.800781zm0 0" fill="#b3e59f"/><path d="m329.382812 397.390625c-19.261718 22.882813-30.625 48.578125-33.484374 71.558594 22.152343-6.738281 45.535156-22.316407 64.796874-45.195313 17.339844-20.597656 28.277344-43.480468 32.375-64.601562.609376-3.136719-2.566406-5.808594-5.550781-4.675782-20.117187 7.636719-40.796875 22.316407-58.136719 42.914063zm0 0" fill="#95d6a4"/><path d="m264.757812 276.644531c-43.257812 0-78.453124-35.195312-78.453124-78.453125 0-43.257812 35.195312-78.449218 78.453124-78.449218 43.257813 0 78.453126 35.191406 78.453126 78.449218 0 43.257813-35.195313 78.453125-78.453126 78.453125zm0-132.128906c-29.597656 0-53.675781 24.082031-53.675781 53.675781 0 29.597656 24.078125 53.679688 53.675781 53.679688 29.59375 0 53.675782-24.082032 53.675782-53.679688 0-29.59375-24.082032-53.675781-53.675782-53.675781zm0 0" fill="#eceaec"/><path d="m321.417969 252.394531c-5.195313-6.425781-10.820313-12.519531-16.839844-18.246093-9.832031 10.875-24.039063 17.722656-39.820313 17.722656-29.597656 0-53.679687-24.082032-53.679687-53.675782 0-23.835937 15.628906-44.097656 37.164063-51.082031v-25.625c-35.351563 7.609375-61.9375 39.117188-61.9375 76.707031 0 43.257813 35.195312 78.449219 78.453124 78.449219 22.253907 0 42.367188-9.316406 56.660157-24.25zm0 0" fill="#dad8db"/><path d="m260.878906 221.757812c-17.941406-10.414062-29.15625-29.402343-29.15625-50.148437v-113.804687c0-4.558594-3.695312-8.257813-8.257812-8.257813h-124.953125c-6.597657 0-10.53125 7.351563-6.871094 12.839844l20.3125 30.46875c2.710937 4.070312 4.160156 8.851562 4.160156 13.742187v65.011719c0 20.742187-11.210937 39.730469-29.152343 50.144531-51.671876 29.992188-86.460938 85.804688-86.460938 149.859375 0 53.257813 24.105469 100.792969 61.90625 132.585938 5.992188 5.039062 13.578125 7.800781 21.40625 7.800781h180.214844c7.828125 0 15.414062-2.765625 21.40625-7.800781 37.800781-31.792969 61.90625-79.328125 61.90625-132.585938-.003906-64.054687-34.789063-119.867187-86.460938-149.855469zm0 0" fill="#eceaec"/><path d="m130.660156 495.484375c-16.566406 0-31.859375-9.757813-38.015625-25.140625-11.207031-27.980469-17.824219-61.945312-17.824219-98.730469 0-64.054687 28.28125-119.867187 57.808594-149.855469 10.25-10.414062 16.65625-29.402343 16.65625-50.148437v-122.0625h-50.777344c-6.59375 0-10.527343 7.351563-6.871093 12.839844l20.316406 30.46875c2.710937 4.070312 4.160156 8.851562 4.160156 13.742187v65.011719c0 20.742187-11.210937 39.730469-29.152343 50.144531-51.671876 29.992188-86.460938 85.804688-86.460938 149.859375 0 53.257813 24.101562 100.792969 61.90625 132.585938 5.992188 5.039062 13.578125 7.800781 21.402344 7.800781h180.21875c7.828125 0 15.414062-2.765625 21.402344-7.800781 3.300781-2.773438 6.453124-5.710938 9.535156-8.714844zm0 0" fill="#dad8db"/><path d="m252.585938 236.039062c-23.054688-13.382812-37.378907-38.070312-37.378907-64.429687v-6.449219c0-4.558594-3.695312-8.257812-8.257812-8.257812h-66.0625c-4.5625 0-8.257813 3.699218-8.257813 8.257812v6.449219c0 26.359375-14.324218 51.046875-37.378906 64.429687-48.257812 28.011719-78.234375 79.960938-78.234375 135.574219 0 46.390625 20.511719 90.203125 56.265625 120.152344 2.929688 2.453125 6.703125 3.71875 10.527344 3.71875h180.21875c3.824218 0 7.59375-1.265625 10.527344-3.71875 35.753906-29.949219 56.265624-73.761719 56.265624-120.152344 0-55.617187-29.976562-107.5625-78.234374-135.574219zm0 0" fill="#ffeaa8"/><path d="m92.644531 470.34375c-11.207031-27.980469-17.824219-61.945312-17.824219-98.730469 0-64.054687 28.28125-119.867187 57.808594-149.855469 10.25-10.414062 16.65625-29.402343 16.65625-50.148437v-14.707031h-8.398437c-4.5625 0-8.257813 3.699218-8.257813 8.257812v6.449219c0 26.359375-14.324218 51.046875-37.378906 64.429687-48.257812 28.011719-78.234375 79.960938-78.234375 135.574219 0 46.390625 20.511719 90.203125 56.265625 120.152344 2.929688 2.457031 6.703125 3.71875 10.527344 3.71875h46.851562c-16.566406 0-31.859375-9.757813-38.015625-25.140625zm0 0" fill="#ffe07d"/><path d="m198.691406 0h-49.546875c-9.121093 0-16.515625 7.394531-16.515625 16.515625v33.03125h82.582032v-33.03125c-.003907-9.121094-7.394532-16.515625-16.519532-16.515625zm0 0" fill="#c38c66"/><path d="m215.207031 33.03125h-41.289062c-9.121094 0-16.515625-7.394531-16.515625-16.515625v-16.515625h41.289062c9.125 0 16.515625 7.394531 16.515625 16.515625zm0 0" fill="#d19a6e"/><path d="m279.15625 493.941406c14.035156-17.976562 13.753906-41.648437-.625-52.875-14.378906-11.226562-37.414062-5.757812-51.445312 12.21875-14.035157 17.972656-13.753907 41.644532.625 52.871094 14.378906 11.226562 37.410156 5.757812 51.445312-12.214844zm0 0" fill="#5d5360"/><path d="m250.136719 498.628906c-14.378907-11.226562-14.660157-34.898437-.628907-52.875 3.277344-4.195312 7.074219-7.730468 11.109376-10.511718-11.765626.109374-24.484376 6.5-33.503907 18.050781-14.03125 17.976562-13.75 41.648437.628907 52.875 11.019531 8.605469 27.15625 7.386719 40.394531-1.738281-6.542969.0625-12.859375-1.789063-18-5.800782zm0 0" fill="#4b3f4e"/><path d="m337.113281 479.175781c6.230469-21.933593-2.941406-43.757812-20.492187-48.746093-17.546875-4.984376-36.824219 8.753906-43.054688 30.691406-6.234375 21.933594 2.9375 43.757812 20.488282 48.742187 17.546874 4.988281 36.824218-8.753906 43.058593-30.6875zm0 0" fill="#6f6571"/><path d="m311.972656 494.460938c-17.546875-4.984376-26.71875-26.808594-20.488281-48.746094 1.457031-5.121094 3.609375-9.8125 6.296875-13.90625-10.859375 4.53125-20.199219 15.226562-24.207031 29.324218-6.230469 21.9375 2.941406 43.761719 20.492187 48.746094 13.449219 3.820313 27.914063-3.359375 36.746094-16.796875-6.039062 2.519531-12.566406 3.160157-18.839844 1.378907zm0 0" fill="#5d5360"/></svg>