<?xml version="1.0" encoding="iso-8859-1"?>
<!-- Generator: Adobe Illustrator 19.0.0, SVG Export Plug-In . SVG Version: 6.00 Build 0)  -->
<svg version="1.1" id="Capa_1" xmlns="http://www.w3.org/2000/svg" xmlns:xlink="http://www.w3.org/1999/xlink" x="0px" y="0px"
	 viewBox="0 0 511.999 511.999" style="enable-background:new 0 0 511.999 511.999;" xml:space="preserve">
<polygon style="fill:#3B484A;" points="458.346,407.849 458.346,259.376 384.301,151.534 310.44,104.651 201.559,104.651 
	123.878,151.534 58.295,249.392 58.295,407.849 "/>
<g>
	<path style="fill:#E86D24;" d="M107.96,176.372H64.971h-0.009c-24.432,35.74-38.242,77.563-39.808,121.526l28.5,24.514
		l28.652-16.052c0-35.309,10.592-68.185,28.758-95.634L107.96,176.372z"/>
	<path style="fill:#E86D24;" d="M404.04,176.372h42.988h0.009c24.432,35.74,38.242,77.563,39.808,121.526l-28.5,24.514
		l-28.652-16.052c0-35.309-10.592-68.185-28.758-95.634L404.04,176.372z"/>
</g>
<g>
	<path style="fill:#FB8D4B;" d="M82.306,306.36v101.488H25V306.36c0-2.827,0.047-5.644,0.152-8.462L82.306,306.36z"/>
	<path style="fill:#FB8D4B;" d="M168.743,92.342c-28.137,11.471-53.954,28.547-76.083,50.678
		c-10.353,10.353-19.608,21.518-27.688,33.352l46.093,34.354c20.525-31.002,50.725-55.07,86.274-67.859l4.222-38.217L168.743,92.342
		z"/>
	<path style="fill:#FB8D4B;" d="M429.694,306.36v101.488H487V306.36c0-2.827-0.047-5.644-0.152-8.462L429.694,306.36z"/>
	<path style="fill:#FB8D4B;" d="M343.257,92.342c28.137,11.471,53.954,28.547,76.083,50.678
		c10.353,10.353,19.608,21.518,27.688,33.352l-46.093,34.354c-20.525-31.002-50.725-55.07-86.274-67.859l-4.222-38.217
		L343.257,92.342z"/>
</g>
<path style="fill:#FEEA61;" d="M121.137,379.057c-3.057-22.586,0.059-45.524,16.945-62.022
	c11.636-11.367,27.415-17.493,38.767-29.094c3.551-3.628,6.477-7.838,8.143-12.671c4.159-12.075,4.002-22.482,12.023-33.254
	c7.167-9.626,16.857-17.239,27.227-23.153c21.424-12.219,48.066-18.789,72.633-14.563c0,0-27.22,41.069,0,64.469
	c0,0,2.865-38.681,40.591-36.293c0,0-11.461,42.979,32.95,74.02c24.573,17.175,23.854,48.238,18.308,72.563l-115.795,17.215
	L121.137,379.057z"/>
<path style="fill:#FB8D4B;" d="M152.042,379.057c-3.057-22.586,0.059-45.524,16.945-62.022
	c11.636-11.367,27.415-17.493,38.767-29.094c3.551-3.628,6.477-7.838,8.143-12.671c4.159-12.075,4.002-22.482,12.023-33.254
	c7.167-9.626,16.857-17.239,27.227-23.153c12.524-7.143,26.831-12.35,41.465-14.604c-24.495-4.135-51.024,2.429-72.37,14.604
	c-10.369,5.914-20.06,13.527-27.227,23.153c-8.021,10.773-7.864,21.181-12.023,33.254c-1.665,4.834-4.592,9.042-8.143,12.671
	c-11.352,11.601-27.132,17.727-38.767,29.094c-16.887,16.498-20.002,39.435-16.945,62.022l151.793,17.216l13.374-1.988
	L152.042,379.057z"/>
<g>
	<path style="fill:#3B484A;" d="M197.828,340.241c-4.268,0-7.726-3.459-7.726-7.726v-10.528c0-4.267,3.458-7.726,7.726-7.726
		c4.268,0,7.726,3.459,7.726,7.726v10.528C205.554,336.782,202.096,340.241,197.828,340.241z"/>
	<path style="fill:#3B484A;" d="M314.172,340.241c-4.268,0-7.726-3.459-7.726-7.726v-10.528c0-4.267,3.458-7.726,7.726-7.726
		s7.726,3.459,7.726,7.726v10.528C321.899,336.782,318.439,340.241,314.172,340.241z"/>
	<path style="fill:#3B484A;" d="M256,345.861c-7.824,0-15.178-3.278-20.175-8.993c-2.809-3.212-2.481-8.093,0.731-10.902
		c3.211-2.808,8.092-2.482,10.902,0.731c2.062,2.359,5.175,3.712,8.541,3.712c3.367,0,6.479-1.353,8.54-3.711
		c2.808-3.213,7.689-3.541,10.901-0.732c3.213,2.808,3.542,7.689,0.732,10.902C271.179,342.583,263.825,345.861,256,345.861z"/>
</g>
<path style="fill:#E86D24;" d="M343.257,92.342l-28.596,50.524c-18.328-6.599-38.08-10.201-58.662-10.201s-40.334,3.6-58.662,10.201
	l-28.596-50.524C196.068,81.197,225.59,75.361,256,75.361S315.932,81.197,343.257,92.342z"/>
<path style="fill:#F3F5E6;" d="M494.932,379.057H17.068C7.642,379.057,0,386.698,0,396.125v23.445
	c0,9.426,7.642,17.068,17.068,17.068h477.863c9.426,0,17.068-7.642,17.068-17.068v-23.445
	C512,386.698,504.358,379.057,494.932,379.057z"/>
<path style="fill:#D7D9CC;" d="M51.509,419.57v-23.445c0-9.426,7.642-17.068,17.068-17.068H17.068
	C7.642,379.057,0,386.699,0,396.125v23.445c0,9.426,7.642,17.068,17.068,17.068h51.509C59.151,436.639,51.509,428.997,51.509,419.57
	z"/>
<g>
</g>
<g>
</g>
<g>
</g>
<g>
</g>
<g>
</g>
<g>
</g>
<g>
</g>
<g>
</g>
<g>
</g>
<g>
</g>
<g>
</g>
<g>
</g>
<g>
</g>
<g>
</g>
<g>
</g>
</svg>
