<?xml version="1.0" encoding="iso-8859-1"?>
<!-- Generator: Adobe Illustrator 19.0.0, SVG Export Plug-In . SVG Version: 6.00 Build 0)  -->
<svg version="1.1" id="Capa_1" xmlns="http://www.w3.org/2000/svg" xmlns:xlink="http://www.w3.org/1999/xlink" x="0px" y="0px"
	 viewBox="0 0 512 512" style="enable-background:new 0 0 512 512;" xml:space="preserve">
<path style="fill:#F3F5E6;" d="M181.012,214.057c-6.75-0.81-13.595,0.12-19.885,2.7l-30.958,12.701
	c-3.392,1.392-6.577,3.245-9.463,5.507l-30.482,23.891c-5.56,4.358-12.177,7.16-19.175,8.121l0,0
	c-12.106,1.662-22.78,8.781-28.966,19.319l-14.419,24.567c-4.776,8.137-6.512,17.706-4.899,27.002l2.793,16.091
	c0.568,3.272,0.725,6.602,0.467,9.913l-5,64.212l128.706-79.53l79.53-128.706L181.012,214.057z"/>
<path style="fill:#D7D9CC;" d="M50.163,398.945l5-64.212c0.258-3.311,0.101-6.642-0.467-9.913l-2.793-16.091
	c-1.613-9.297,0.123-18.865,4.899-27.002l7.812-13.31c-9.398,2.928-17.469,9.257-22.53,17.881l-14.419,24.568
	c-4.776,8.137-6.512,17.706-4.899,27.002l2.793,16.091c0.568,3.272,0.724,6.602,0.467,9.913l-5,64.212l128.706-79.53l11.128-18.01
	L50.163,398.945z"/>
<path style="fill:#4CC7B3;" d="M436.498,12.609L21.025,428.082c-10.661,10.661-7.585,28.661,6.012,35.177l83.267,39.899
	c34.444,16.505,75.555,9.479,102.562-17.53l69.552-69.552c26.185-26.185,33.265-65.921,17.735-99.539l-3.066-6.636
	c-14.003-30.312-8.568-66.056,13.814-90.836L497.382,12.609l0,0C480.569-4.203,453.311-4.203,436.498,12.609z"/>
<path style="fill:#2AAC92;" d="M139.443,474.02l-83.267-39.899c-13.597-6.515-16.673-24.514-6.012-35.177l-29.138,29.138
	c-10.661,10.661-7.585,28.661,6.012,35.177l83.267,39.899c34.444,16.505,75.555,9.479,102.562-17.53l29.138-29.138
	C214.997,483.499,173.887,490.525,139.443,474.02z"/>
<g>
	<path style="fill:#3B484A;" d="M131.477,445.462c-1.977,0-3.955-0.754-5.463-2.263l-9.563-9.563c-3.017-3.017-3.017-7.909,0-10.926
		c3.017-3.017,7.91-3.018,10.926,0l9.563,9.563c3.017,3.017,3.017,7.909,0,10.926C135.431,444.707,133.454,445.462,131.477,445.462z
		"/>
	<path style="fill:#3B484A;" d="M237.156,339.782c-1.977,0-3.955-0.754-5.463-2.263l-9.563-9.563c-3.017-3.017-3.017-7.91,0-10.926
		c3.017-3.017,7.91-3.017,10.926,0l9.563,9.563c3.017,3.017,3.017,7.91,0,10.926C241.111,339.027,239.134,339.782,237.156,339.782z"
		/>
	<path style="fill:#3B484A;" d="M172.151,405.05c-0.686,0-1.371-0.023-2.058-0.069c-4.258-0.285-7.477-3.969-7.191-8.226
		c0.285-4.258,3.965-7.484,8.227-7.191c4.641,0.306,9.324-1.521,12.83-5.026c3.507-3.507,5.338-8.183,5.026-12.831
		c-0.286-4.258,2.934-7.941,7.191-8.226c4.248-0.291,7.941,2.933,8.226,7.191c0.611,9.096-2.858,18.133-9.517,24.792
		C188.728,401.62,180.54,405.05,172.151,405.05z"/>
</g>
<g>
</g>
<g>
</g>
<g>
</g>
<g>
</g>
<g>
</g>
<g>
</g>
<g>
</g>
<g>
</g>
<g>
</g>
<g>
</g>
<g>
</g>
<g>
</g>
<g>
</g>
<g>
</g>
<g>
</g>
</svg>
