<?xml version="1.0" encoding="iso-8859-1"?>
<!-- Generator: Adobe Illustrator 19.0.0, SVG Export Plug-In . SVG Version: 6.00 Build 0)  -->
<svg version="1.1" id="Capa_1" xmlns="http://www.w3.org/2000/svg" xmlns:xlink="http://www.w3.org/1999/xlink" x="0px" y="0px"
	 viewBox="0 0 512 512" style="enable-background:new 0 0 512 512;" xml:space="preserve">
<path style="fill:#F3F5E6;" d="M461.104,144.669c-3.607-4.39-7.933-8.135-12.796-11.074l-26.896-16.265
	c-3.648-2.206-7.562-3.937-11.647-5.153L357.14,96.521c-12.826-3.816-26.645-2.347-38.381,4.081c-5.95,3.258-12.5,5.276-19.253,5.93
	l-13.761,1.332c-10.647,1.03-20.686,5.439-28.649,12.582l-1.303,1.169c-6.347,5.693-14.041,9.673-22.355,11.565l-16.713,3.802
	c-10.653,2.424-20.223,8.261-27.254,16.624l-5.083,6.045c-3.243,3.858-7.051,7.204-11.292,9.927l-24.828,15.938l17.514,17.336
	h277.496l51.386-17.336L461.104,144.669z"/>
<path style="fill:#D7D9CC;" d="M234.906,169.577c4.241-2.723,8.048-6.07,11.292-9.928l5.083-6.045
	c7.031-8.362,16.601-14.2,27.254-16.624l16.713-3.802c8.314-1.891,16.008-5.872,22.355-11.565l1.303-1.169
	c7.963-7.142,18.002-11.55,28.649-12.582l13.761-1.331c5.395-0.522,10.655-1.93,15.589-4.13l-19.765-5.88
	c-12.826-3.816-26.645-2.347-38.381,4.081c-5.95,3.259-12.5,5.277-19.253,5.93l-13.761,1.331
	c-10.647,1.03-20.686,5.439-28.649,12.582l-1.303,1.169c-6.347,5.693-14.041,9.673-22.355,11.565l-16.713,3.802
	c-10.653,2.424-20.223,8.262-27.254,16.624l-5.083,6.045c-3.243,3.858-7.051,7.205-11.292,9.928l-24.828,15.938l17.514,17.336
	h61.811l-17.514-17.336L234.906,169.577z"/>
<path style="fill:#80E2FF;" d="M18.625,240.416C8.338,240.416,0,248.755,0,259.041c0,10.286,8.338,18.625,18.625,18.625h160.869
	v-37.248H18.625V240.416z"/>
<g>
	<path style="fill:#55C2E3;" d="M119.98,277.666h59.514v-37.248h-62.665C117.016,250.551,117.818,263.376,119.98,277.666z"/>
	<path style="fill:#55C2E3;" d="M148.267,220.187c0,0-19.941,197.374,173.198,197.374s173.198-197.374,173.198-197.374
		l-173.198-17.336L148.267,220.187z"/>
</g>
<path style="fill:#45B6D9;" d="M189.474,220.187l152.595-15.273l-20.604-2.062l-173.198,17.336c0,0-19.941,197.373,173.198,197.373
	c7.159,0,14.018-0.278,20.604-0.799C170.992,403.193,189.474,220.187,189.474,220.187z"/>
<g>
	<path style="fill:#3B484A;" d="M246.113,310.653c-4.268,0-7.726-3.459-7.726-7.726v-13.638c0-4.267,3.458-7.726,7.726-7.726
		s7.726,3.459,7.726,7.726v13.638C253.84,307.194,250.381,310.653,246.113,310.653z"/>
	<path style="fill:#3B484A;" d="M396.817,310.653c-4.268,0-7.726-3.459-7.726-7.726v-13.638c0-4.267,3.458-7.726,7.726-7.726
		c4.268,0,7.726,3.459,7.726,7.726v13.638C404.544,307.194,401.086,310.653,396.817,310.653z"/>
	<path style="fill:#3B484A;" d="M321.466,317.932c-9.479,0-18.377-3.962-24.415-10.87c-2.808-3.213-2.48-8.094,0.733-10.902
		s8.093-2.48,10.902,0.733c3.103,3.55,7.76,5.587,12.779,5.587s9.678-2.037,12.779-5.587c2.81-3.213,7.69-3.541,10.902-0.733
		c3.213,2.808,3.542,7.689,0.734,10.902C339.842,313.97,330.945,317.932,321.466,317.932z"/>
</g>
<path style="fill:#80E2FF;" d="M494.664,185.515H148.267c-9.575,0-17.336,7.761-17.336,17.336l0,0
	c0,9.575,7.761,17.336,17.336,17.336h346.397c9.574,0,17.336-7.761,17.336-17.336l0,0C512,193.276,504.239,185.515,494.664,185.515z
	"/>
<path style="fill:#55C2E3;" d="M172.138,202.851L172.138,202.851c0-9.575,7.761-17.336,17.336-17.336h-41.207
	c-9.575,0-17.336,7.761-17.336,17.336l0,0c0,9.575,7.761,17.336,17.336,17.336h41.207
	C179.901,220.187,172.138,212.425,172.138,202.851z"/>
<g>
</g>
<g>
</g>
<g>
</g>
<g>
</g>
<g>
</g>
<g>
</g>
<g>
</g>
<g>
</g>
<g>
</g>
<g>
</g>
<g>
</g>
<g>
</g>
<g>
</g>
<g>
</g>
<g>
</g>
</svg>
