<?xml version="1.0" encoding="iso-8859-1"?>
<!-- Generator: Adobe Illustrator 19.0.0, SVG Export Plug-In . SVG Version: 6.00 Build 0)  -->
<svg version="1.1" id="Capa_1" xmlns="http://www.w3.org/2000/svg" xmlns:xlink="http://www.w3.org/1999/xlink" x="0px" y="0px"
	 viewBox="0 0 512.002 512.002" style="enable-background:new 0 0 512.002 512.002;" xml:space="preserve">
<path style="fill:#FEC300;" d="M511.984,18.76c0.471-10.559-8.182-19.211-18.741-18.741c-23.53,1.048-47.709,11.25-66.745,30.286
	c-23.885,23.885-33.861,55.864-29.3,84.501c28.636,4.56,60.616-5.416,84.501-29.3C500.735,66.469,510.935,42.29,511.984,18.76z"/>
<g>
	<path style="fill:#FB8D4B;" d="M476.227,199.629c7.799-7.133,7.799-19.37,0-26.503c-17.38-15.897-41.69-25.781-68.611-25.781
		c-33.778,0-63.445,15.559-80.47,39.032c17.024,23.473,46.692,39.032,80.47,39.032C434.537,225.41,458.848,215.526,476.227,199.629z
		"/>
	<path style="fill:#FB8D4B;" d="M313.895,37.296c7.133-7.799,19.37-7.799,26.503,0c15.897,17.38,25.781,41.69,25.781,68.611
		c0,33.778-15.559,63.445-39.032,80.47c-23.473-17.024-39.032-46.692-39.032-80.47C288.114,78.986,297.998,54.676,313.895,37.296z"
		/>
</g>
<g>
	<path style="fill:#FEC300;" d="M387.686,288.17c7.799-7.133,7.799-19.37,0-26.503c-17.38-15.897-41.69-25.781-68.611-25.781
		c-33.778,0-63.445,15.559-80.47,39.032c17.024,23.473,46.692,39.032,80.47,39.032C345.997,313.95,370.307,304.067,387.686,288.17z"
		/>
	<path style="fill:#FEC300;" d="M225.354,125.837c7.133-7.799,19.37-7.799,26.503,0c15.897,17.38,25.781,41.69,25.781,68.611
		c0,33.778-15.559,63.445-39.032,80.47c-23.473-17.024-39.032-46.692-39.032-80.47C199.573,167.527,209.457,143.217,225.354,125.837
		z"/>
</g>
<g>
	<path style="fill:#FB8D4B;" d="M299.146,376.71c7.799-7.133,7.799-19.37,0-26.503c-17.38-15.897-41.69-25.781-68.611-25.781
		c-33.778,0-63.445,15.559-80.47,39.032c17.024,23.473,46.692,39.032,80.47,39.032C257.456,402.491,281.766,392.607,299.146,376.71z
		"/>
	<path style="fill:#FB8D4B;" d="M136.813,214.378c7.133-7.799,19.37-7.799,26.503,0c15.897,17.38,25.781,41.69,25.781,68.611
		c0,33.778-15.559,63.445-39.032,80.47c-23.473-17.024-39.032-46.692-39.032-80.47C111.032,256.068,120.916,231.758,136.813,214.378
		z"/>
</g>
<g>
	<path style="fill:#FEC300;" d="M210.605,465.251c7.799-7.133,7.799-19.37,0-26.503c-17.38-15.897-41.69-25.781-68.611-25.781
		c-33.778,0-63.445,15.559-80.47,39.032c17.024,23.473,46.692,39.032,80.47,39.032C168.915,491.032,193.225,481.148,210.605,465.251
		z"/>
	<path style="fill:#FEC300;" d="M48.272,302.919c7.133-7.799,19.37-7.799,26.503,0c15.897,17.38,25.781,41.69,25.781,68.611
		c0,33.778-15.559,63.445-39.032,80.47c-23.473-17.024-39.032-46.692-39.032-80.47C22.491,344.609,32.375,320.299,48.272,302.919z"
		/>
</g>
<path style="fill:#A8503C;" d="M325.894,281.726c4.204,0,7.611-3.408,7.611-7.611c-0.001-4.205-3.408-7.612-7.613-7.613h-69.629
	l72.514-72.514h84.852c4.204,0,7.612-3.408,7.612-7.611c0-4.204-3.407-7.611-7.613-7.613h-69.628L463.095,59.669
	c2.973-2.973,2.973-7.791,0-10.765c-2.973-2.973-7.792-2.973-10.765,0L334.758,166.481V99.894c-0.001-4.205-3.408-7.611-7.613-7.613
	c-4.204,0-7.612,3.408-7.612,7.611v81.811l-72.514,72.514v-66.587c-0.001-4.205-3.408-7.611-7.613-7.613
	c-4.204,0-7.611,3.408-7.611,7.611v81.811l-72.513,72.513v-66.587c-0.001-4.205-3.408-7.611-7.613-7.613
	c-4.204,0-7.611,3.408-7.611,7.612v81.811l-72.513,72.513v-66.587c-0.001-4.205-3.408-7.612-7.613-7.613
	c-4.204,0-7.611,3.408-7.611,7.611v81.811L2.229,499.007c-2.973,2.973-2.973,7.791,0,10.765c2.973,2.973,7.792,2.973,10.765,0
	L65.565,457.2h84.853c4.204,0,7.611-3.408,7.611-7.611c0-4.204-3.407-7.612-7.613-7.613H80.789l72.513-72.513h84.852
	c4.204,0,7.611-3.408,7.611-7.611c0-4.204-3.407-7.612-7.613-7.613h-69.628l72.513-72.513L325.894,281.726L325.894,281.726z"/>
<g>
</g>
<g>
</g>
<g>
</g>
<g>
</g>
<g>
</g>
<g>
</g>
<g>
</g>
<g>
</g>
<g>
</g>
<g>
</g>
<g>
</g>
<g>
</g>
<g>
</g>
<g>
</g>
<g>
</g>
</svg>
